<svg id="svg" version="1.1" xmlns="http://www.w3.org/2000/svg" xmlns:xlink="http://www.w3.org/1999/xlink" width="400" height="630.3683737646002" viewBox="0, 0, 400,630.3683737646002"><g id="svgg"><path id="path0" d="M111.858 153.957 C 111.786 154.074,112.155 155.020,112.679 156.060 L 113.632 157.950 118.417 157.950 C 122.725 157.950,123.222 157.996,123.398 158.410 C 123.752 159.244,123.868 167.716,123.546 169.266 L 123.244 170.720 120.809 170.614 C 114.982 170.359,114.813 174.461,120.330 182.253 C 122.577 185.427,133.442 196.046,133.878 195.494 C 134.237 195.039,136.483 190.539,136.390 190.462 C 136.323 190.406,134.967 189.582,133.377 188.631 C 129.966 186.591,126.970 184.387,124.480 182.085 L 122.679 180.420 124.349 178.712 C 125.267 177.773,126.259 176.660,126.554 176.241 L 127.089 175.477 129.182 176.283 C 133.504 177.948,138.327 178.534,142.112 177.856 L 143.225 177.656 143.294 185.198 L 143.364 192.739 145.204 193.210 C 146.216 193.469,147.209 193.683,147.410 193.687 C 147.722 193.692,147.757 191.009,147.642 175.821 L 147.506 157.950 154.703 157.950 L 161.900 157.950 161.831 165.367 L 161.761 172.785 160.613 172.980 C 155.511 173.851,154.851 177.232,158.978 181.359 C 162.974 185.355,165.721 184.586,166.083 179.369 L 166.229 177.267 173.533 177.197 L 180.837 177.127 180.760 184.892 L 180.683 192.657 181.603 192.894 C 182.109 193.025,183.028 193.263,183.646 193.424 C 185.486 193.903,185.381 195.096,185.210 175.649 L 185.054 157.950 190.687 157.950 L 196.321 157.950 196.321 175.285 L 196.321 192.620 197.438 192.923 C 198.052 193.090,198.897 193.331,199.316 193.459 C 199.736 193.588,200.238 193.693,200.433 193.693 C 200.728 193.693,200.788 190.654,200.788 175.821 L 200.788 157.950 221.551 157.950 L 242.313 157.950 242.313 161.758 L 242.313 165.565 232.392 165.634 L 222.470 165.703 222.512 166.365 C 222.534 166.729,222.889 167.725,223.300 168.578 L 224.047 170.128 225.653 170.454 C 231.686 171.678,233.850 176.752,229.927 180.473 C 224.209 185.897,216.181 180.567,210.946 167.871 C 210.470 166.717,210.530 166.732,209.164 167.429 C 207.837 168.106,207.846 168.160,210.097 172.824 C 214.900 182.774,220.269 187.484,226.807 187.483 C 235.088 187.482,238.074 179.591,232.933 171.293 C 232.599 170.754,232.326 170.249,232.326 170.170 C 232.326 170.092,234.543 170.060,237.254 170.099 L 242.181 170.171 242.079 181.374 L 241.976 192.576 242.867 192.844 C 244.993 193.484,246.282 193.753,246.444 193.591 C 246.540 193.495,246.586 185.437,246.545 175.683 L 246.472 157.950 250.043 157.950 C 254.173 157.950,254.052 158.060,252.769 155.458 L 251.924 153.745 181.956 153.745 C 143.474 153.745,111.930 153.841,111.858 153.957 M277.661 153.928 C 260.879 156.154,257.339 183.523,272.822 191.339 L 274.376 192.123 274.376 203.946 L 274.376 215.769 279.369 215.769 L 284.363 215.769 284.367 204.008 L 284.372 192.247 285.799 191.629 C 294.554 187.840,298.883 175.216,294.853 165.226 C 291.732 157.491,284.859 152.974,277.661 153.928 M143.233 165.149 C 143.233 171.572,143.186 172.366,142.803 172.513 C 140.695 173.322,134.571 173.625,131.537 173.071 C 128.357 172.490,127.849 172.300,127.918 171.723 C 128.351 168.108,128.222 163.552,127.560 159.067 L 127.395 157.950 135.314 157.950 L 143.233 157.950 143.233 165.149 M180.815 165.440 L 180.815 172.930 173.456 172.930 L 166.097 172.930 166.097 165.440 L 166.097 157.950 173.456 157.950 L 180.815 157.950 180.815 165.440 " stroke="none" fill="#31b0d5" fill-rule="evenodd"></path><path id="path1" d="M0.000 315.375 L 0.000 630.749 200.000 630.749 L 400.000 630.749 400.000 315.375 L 400.000 0.000 200.000 0.000 L 0.000 0.000 0.000 315.375 M253.030 155.540 C 254.234 158.092,254.397 157.950,250.253 157.950 L 246.629 157.950 246.737 175.710 C 246.806 186.980,246.752 193.563,246.591 193.725 C 246.371 193.945,242.684 193.164,242.028 192.759 C 241.923 192.695,241.904 187.615,241.984 181.472 L 242.130 170.302 237.391 170.302 L 232.652 170.302 233.806 172.602 C 237.107 179.180,236.004 184.401,230.782 186.913 C 223.269 190.527,213.852 183.340,208.584 169.971 C 207.733 167.810,207.712 168.090,208.772 167.465 C 210.057 166.707,210.775 166.517,210.778 166.934 C 210.782 167.586,213.609 173.135,215.057 175.333 C 219.544 182.144,225.207 184.241,229.407 180.646 C 233.723 176.952,231.929 172.131,225.669 170.597 L 223.784 170.135 222.915 168.116 C 222.436 167.006,222.118 165.979,222.208 165.834 C 222.311 165.667,225.932 165.572,232.210 165.572 L 242.050 165.572 242.050 161.761 L 242.050 157.950 221.551 157.950 L 201.051 157.950 201.051 175.806 C 201.051 186.652,200.954 193.721,200.804 193.814 C 200.583 193.951,196.781 193.057,196.288 192.752 C 196.178 192.685,196.160 184.826,196.247 175.290 L 196.405 157.950 190.803 157.950 L 185.200 157.950 185.351 175.676 C 185.464 189.022,185.426 193.464,185.195 193.654 C 184.994 193.820,184.130 193.713,182.683 193.344 L 180.478 192.781 180.612 185.090 L 180.746 177.398 173.553 177.398 L 166.360 177.398 166.360 178.727 C 166.360 183.191,163.906 185.253,160.968 183.258 C 154.745 179.031,154.585 173.856,160.644 172.783 L 161.629 172.609 161.629 165.280 L 161.629 157.950 154.622 157.950 L 147.614 157.950 147.781 175.624 C 147.872 185.345,147.854 193.448,147.739 193.632 C 147.576 193.895,147.042 193.840,145.213 193.372 L 142.895 192.779 143.032 185.347 L 143.169 177.916 141.427 178.117 C 137.113 178.615,133.480 178.131,129.304 176.503 L 127.070 175.632 126.235 176.869 C 125.776 177.550,124.830 178.612,124.133 179.229 L 122.865 180.351 124.967 182.311 C 127.008 184.213,132.483 188.087,135.283 189.609 C 136.930 190.505,136.919 190.149,135.389 193.035 C 133.934 195.783,133.825 195.820,131.912 194.218 C 119.918 184.177,113.885 174.821,117.173 171.365 L 118.241 170.243 120.664 170.338 L 123.088 170.434 123.330 169.645 C 123.624 168.692,123.682 161.569,123.414 159.461 L 123.221 157.950 118.303 157.950 L 113.385 157.950 112.540 156.237 C 112.075 155.295,111.695 154.348,111.695 154.134 C 111.695 153.792,120.074 153.745,181.939 153.745 L 252.184 153.745 253.030 155.540 M283.405 154.161 C 299.344 158.271,301.128 184.792,285.934 191.767 L 284.363 192.488 284.363 204.128 L 284.363 215.769 279.369 215.769 L 274.376 215.769 274.365 204.008 L 274.354 192.247 273.075 191.648 C 269.135 189.801,265.545 185.601,263.910 180.923 C 258.745 166.145,269.993 150.704,283.405 154.161 M127.886 159.855 C 128.015 160.903,128.121 164.097,128.121 166.952 C 128.121 169.806,128.135 172.142,128.153 172.142 C 128.171 172.142,129.117 172.377,130.256 172.664 C 132.780 173.299,136.748 173.353,140.342 172.799 C 141.715 172.587,142.927 172.412,143.035 172.409 C 143.144 172.407,143.233 169.152,143.233 165.177 L 143.233 157.950 135.442 157.950 L 127.651 157.950 127.886 159.855 M166.097 165.440 L 166.097 172.930 173.456 172.930 L 180.815 172.930 180.815 165.440 L 180.815 157.950 173.456 157.950 L 166.097 157.950 166.097 165.440 M178.960 204.928 C 179.546 206.554,180.506 209.213,181.093 210.837 C 182.216 213.948,182.690 214.717,183.484 214.717 C 183.793 214.717,183.968 214.907,183.968 215.243 C 183.968 215.732,183.793 215.769,181.472 215.769 C 179.150 215.769,178.975 215.732,178.975 215.243 C 178.975 214.858,179.150 214.717,179.632 214.717 C 180.442 214.717,180.448 214.452,179.682 212.474 L 179.075 210.907 176.896 210.907 L 174.717 210.907 174.218 212.221 C 173.514 214.076,173.554 214.717,174.376 214.717 C 174.862 214.717,175.033 214.857,175.033 215.253 C 175.033 215.758,174.897 215.785,172.733 215.713 C 170.489 215.639,169.343 215.004,171.023 214.765 C 171.855 214.647,172.239 213.990,173.738 210.118 C 177.658 199.997,177.307 200.346,178.960 204.928 M193.941 202.957 C 195.233 205.882,197.812 211.491,198.007 211.800 C 198.231 212.155,198.826 211.021,202.096 204.008 L 202.984 202.102 204.930 202.102 C 206.962 202.102,207.459 202.519,205.919 202.931 C 204.775 203.237,204.740 203.445,204.908 208.935 C 205.071 214.265,205.173 214.717,206.208 214.717 C 206.658 214.717,206.833 214.865,206.833 215.243 C 206.833 215.735,206.658 215.769,204.074 215.769 C 201.489 215.769,201.314 215.735,201.314 215.243 C 201.314 214.860,201.489 214.717,201.962 214.717 C 202.333 214.717,202.726 214.501,202.882 214.209 C 203.184 213.644,203.227 207.548,202.940 205.934 L 202.757 204.903 202.012 206.591 C 198.786 213.903,198.019 215.506,197.745 215.506 C 197.476 215.506,196.432 213.220,193.624 206.478 L 192.984 204.939 192.815 206.346 C 192.722 207.120,192.645 209.248,192.644 211.076 C 192.641 214.600,192.684 214.717,193.977 214.717 C 194.309 214.717,194.481 214.900,194.481 215.253 C 194.481 215.759,194.346 215.784,191.919 215.713 C 189.452 215.640,188.226 215.066,189.882 214.758 C 191.107 214.531,191.514 212.643,191.649 206.570 L 191.721 203.285 190.867 203.034 C 189.345 202.585,189.823 202.102,191.789 202.102 C 193.539 202.102,193.569 202.114,193.941 202.957 M210.793 202.375 C 211.946 202.992,210.985 204.737,209.714 204.333 C 208.857 204.061,209.158 202.102,210.057 202.102 C 210.182 202.102,210.513 202.225,210.793 202.375 M176.516 205.907 C 176.279 206.561,175.890 207.631,175.652 208.284 C 175.119 209.751,175.137 209.769,177.075 209.672 L 178.653 209.593 177.886 207.240 C 177.463 205.947,177.080 204.850,177.033 204.804 C 176.987 204.757,176.754 205.254,176.516 205.907 M211.168 214.108 C 211.247 214.447,211.542 214.715,211.890 214.765 C 212.214 214.811,212.518 215.056,212.566 215.309 C 212.644 215.720,212.397 215.769,210.250 215.769 C 208.102 215.769,207.855 215.720,207.933 215.309 C 207.982 215.056,208.286 214.811,208.609 214.765 C 209.743 214.603,209.861 208.249,208.739 207.756 C 207.803 207.346,208.039 206.988,209.527 206.565 L 210.907 206.171 210.971 209.853 C 211.006 211.878,211.095 213.793,211.168 214.108 M217.429 207.159 C 218.993 205.675,221.047 206.078,220.298 207.722 C 219.982 208.417,219.353 208.631,219.054 208.147 C 218.965 208.003,218.683 207.884,218.427 207.884 C 216.453 207.884,215.596 214.541,217.541 214.766 C 217.982 214.817,218.296 215.031,218.350 215.319 C 218.431 215.748,218.223 215.782,215.987 215.713 C 213.503 215.636,212.547 215.106,214.192 214.717 L 214.849 214.562 214.849 211.289 C 214.849 208.147,214.825 208.005,214.258 207.756 C 213.539 207.441,213.476 206.833,214.162 206.833 C 214.434 206.833,215.055 206.665,215.541 206.459 L 216.426 206.086 216.509 207.019 L 216.593 207.953 217.429 207.159 M225.156 207.338 C 226.097 206.220,226.970 205.919,227.762 206.438 C 228.968 207.228,228.208 208.827,226.947 208.152 C 225.529 207.393,224.442 208.932,224.446 211.695 C 224.450 214.185,224.609 214.670,225.452 214.768 C 225.868 214.817,226.181 215.037,226.234 215.319 C 226.316 215.748,226.107 215.782,223.871 215.713 C 221.415 215.637,220.227 214.986,222.142 214.766 L 222.865 214.683 222.865 211.288 L 222.865 207.894 222.208 207.729 C 221.443 207.538,221.316 206.833,222.046 206.833 C 222.319 206.833,222.939 206.665,223.426 206.460 L 224.310 206.086 224.391 207.119 L 224.472 208.151 225.156 207.338 M234.749 206.319 C 239.914 207.754,238.955 215.769,233.618 215.769 C 228.420 215.769,227.298 208.188,232.235 206.428 C 233.476 205.986,233.538 205.983,234.749 206.319 M242.838 207.490 C 243.807 206.199,244.970 205.811,245.696 206.537 C 246.628 207.469,245.791 208.743,244.649 208.132 C 243.225 207.369,242.311 208.833,242.317 211.867 C 242.321 214.328,242.429 214.625,243.364 214.757 C 245.172 215.010,243.994 215.638,241.569 215.713 C 239.338 215.782,239.125 215.747,239.206 215.322 C 239.256 215.065,239.532 214.810,239.819 214.756 C 241.176 214.498,241.164 207.622,239.807 207.622 C 238.885 207.622,239.541 206.924,240.802 206.562 L 242.181 206.167 242.313 207.091 C 242.439 207.979,242.460 207.995,242.838 207.490 M231.980 207.776 C 230.253 209.503,231.052 214.080,233.206 214.793 C 234.928 215.364,236.116 213.947,236.109 211.330 C 236.101 207.840,233.852 205.905,231.980 207.776 " stroke="none" fill="#fbfbfb" fill-rule="evenodd"></path><path id="path2" d="M147.543 161.892 C 147.543 164.133,147.584 165.049,147.633 163.929 C 147.682 162.809,147.682 160.976,147.633 159.855 C 147.584 158.735,147.543 159.652,147.543 161.892 M161.691 165.224 C 161.634 172.025,161.592 172.639,161.170 172.749 C 160.738 172.862,160.739 172.871,161.178 172.900 C 161.892 172.946,161.906 172.772,161.826 165.042 L 161.752 157.819 161.691 165.224 M185.129 162.812 C 185.130 165.558,185.168 166.646,185.216 165.229 C 185.263 163.813,185.263 161.566,185.215 160.236 C 185.168 158.906,185.129 160.066,185.129 162.812 M242.155 161.761 C 242.155 163.929,242.196 164.781,242.246 163.654 C 242.295 162.527,242.295 160.753,242.245 159.712 C 242.195 158.671,242.155 159.593,242.155 161.761 M123.583 161.104 C 123.583 161.610,123.637 161.817,123.703 161.564 C 123.769 161.311,123.769 160.897,123.703 160.644 C 123.637 160.391,123.583 160.598,123.583 161.104 M128.050 163.469 C 128.050 163.975,128.105 164.182,128.171 163.929 C 128.237 163.676,128.237 163.262,128.171 163.009 C 128.105 162.756,128.050 162.963,128.050 163.469 M232.326 170.231 C 232.325 170.342,234.509 170.399,237.178 170.357 L 242.031 170.280 242.120 172.853 L 242.209 175.427 242.195 172.799 L 242.181 170.171 237.254 170.099 C 234.543 170.060,232.326 170.119,232.326 170.231 M119.386 170.491 C 119.785 170.551,120.377 170.550,120.700 170.487 C 121.023 170.425,120.696 170.375,119.974 170.377 C 119.251 170.379,118.987 170.430,119.386 170.491 M134.100 173.386 C 134.786 173.440,135.910 173.440,136.597 173.386 C 137.283 173.332,136.721 173.288,135.348 173.288 C 133.975 173.288,133.413 173.332,134.100 173.386 M200.908 183.574 C 200.908 189.067,200.942 191.351,200.985 188.651 C 201.028 185.950,201.028 181.456,200.985 178.664 C 200.943 175.872,200.908 178.081,200.908 183.574 M246.632 183.180 C 246.632 186.866,246.669 188.374,246.714 186.531 C 246.759 184.688,246.759 181.672,246.714 179.829 C 246.669 177.986,246.632 179.494,246.632 183.180 M166.201 177.507 C 166.122 177.712,166.108 178.215,166.170 178.624 C 166.264 179.253,166.287 179.217,166.321 178.388 L 166.360 177.406 173.653 177.332 L 180.946 177.258 173.645 177.197 C 167.550 177.145,166.320 177.197,166.201 177.507 M124.425 178.778 L 123.653 179.632 124.507 178.860 C 125.303 178.141,125.482 177.924,125.279 177.924 C 125.234 177.924,124.850 178.308,124.425 178.778 M235.541 179.238 C 235.541 179.744,235.595 179.951,235.661 179.698 C 235.727 179.445,235.727 179.031,235.661 178.778 C 235.595 178.525,235.541 178.732,235.541 179.238 M122.733 180.191 C 122.733 180.329,123.295 180.970,123.982 181.614 L 125.230 182.786 124.047 181.477 C 123.397 180.757,122.835 180.116,122.799 180.053 C 122.763 179.990,122.733 180.052,122.733 180.191 M224.379 182.577 C 224.706 182.640,225.179 182.638,225.430 182.572 C 225.681 182.506,225.414 182.455,224.836 182.458 C 224.258 182.461,224.052 182.515,224.379 182.577 M180.654 188.830 C 180.654 190.710,180.696 191.444,180.747 190.462 C 180.798 189.480,180.797 187.943,180.746 187.046 C 180.695 186.148,180.654 186.951,180.654 188.830 M125.361 188.305 C 125.852 188.811,126.312 189.225,126.384 189.225 C 126.457 189.225,126.115 188.811,125.624 188.305 C 125.134 187.799,124.673 187.385,124.601 187.385 C 124.529 187.385,124.871 187.799,125.361 188.305 M143.012 190.063 C 142.989 191.464,143.058 192.665,143.167 192.733 C 143.275 192.800,143.332 192.009,143.292 190.974 C 143.170 187.772,143.056 187.402,143.012 190.063 M204.802 209.987 C 204.802 210.637,204.853 210.903,204.916 210.578 C 204.979 210.253,204.979 209.721,204.916 209.396 C 204.853 209.070,204.802 209.336,204.802 209.987 M170.419 215.003 C 170.060 215.585,170.802 215.789,172.955 215.702 L 175.164 215.613 172.837 215.559 C 170.889 215.515,170.534 215.442,170.660 215.112 C 170.835 214.655,170.678 214.584,170.419 215.003 M207.951 215.243 C 208.035 215.552,208.538 215.641,210.271 215.656 L 212.484 215.675 210.389 215.578 C 209.161 215.522,208.202 215.351,208.070 215.165 C 207.910 214.941,207.876 214.964,207.951 215.243 M213.470 215.243 C 213.555 215.554,214.071 215.641,215.921 215.655 L 218.265 215.673 216.040 215.578 C 214.705 215.521,213.724 215.356,213.589 215.166 C 213.429 214.941,213.394 214.963,213.470 215.243 M243.890 215.199 C 243.890 215.405,243.136 215.523,241.590 215.559 L 239.290 215.613 241.500 215.702 C 243.543 215.785,244.538 215.541,244.069 215.072 C 243.970 214.973,243.890 215.031,243.890 215.199 M221.521 215.583 C 221.637 215.698,222.725 215.756,223.940 215.712 L 226.150 215.633 223.731 215.504 C 222.400 215.433,221.406 215.468,221.521 215.583 M180.355 215.699 C 181.041 215.753,182.165 215.753,182.852 215.699 C 183.538 215.645,182.976 215.601,181.603 215.601 C 180.230 215.601,179.668 215.645,180.355 215.699 M190.604 215.699 C 191.291 215.753,192.415 215.753,193.101 215.699 C 193.788 215.645,193.226 215.601,191.853 215.601 C 190.480 215.601,189.918 215.645,190.604 215.699 M202.825 215.700 C 203.584 215.753,204.826 215.753,205.585 215.700 C 206.344 215.647,205.723 215.603,204.205 215.603 C 202.687 215.603,202.066 215.647,202.825 215.700 " stroke="none" fill="#9fccde" fill-rule="evenodd"></path><path id="path3" d="M176.890 202.431 C 176.762 202.756,175.751 205.329,174.644 208.147 C 172.404 213.850,172.131 214.372,171.208 214.723 C 169.937 215.206,170.547 215.506,172.799 215.506 C 175.113 215.506,175.621 215.237,174.225 214.750 C 173.340 214.441,173.340 214.520,174.200 212.024 L 174.631 210.775 176.899 210.775 L 179.167 210.775 179.728 212.313 C 180.447 214.284,180.434 214.624,179.632 214.825 C 178.198 215.185,179.064 215.506,181.472 215.506 C 184.111 215.506,184.505 215.313,183.122 214.699 C 182.186 214.283,182.237 214.399,179.350 206.246 C 177.811 201.899,177.368 201.213,176.890 202.431 M190.079 202.431 C 190.139 202.612,190.533 202.819,190.955 202.892 C 192.521 203.164,191.842 214.529,190.245 214.763 C 188.466 215.024,189.579 215.506,191.962 215.506 C 194.447 215.506,195.356 215.142,193.698 214.811 C 192.362 214.543,192.318 214.344,192.525 209.474 C 192.744 204.296,192.795 204.223,194.067 207.293 C 196.819 213.933,197.524 215.496,197.736 215.427 C 197.864 215.385,198.987 213.109,200.233 210.368 C 201.478 207.628,202.638 205.090,202.811 204.729 C 203.064 204.201,203.115 205.090,203.073 209.320 L 203.022 214.567 202.168 214.812 C 200.606 215.259,201.283 215.506,204.074 215.506 C 206.846 215.506,207.637 215.202,205.979 214.775 C 204.976 214.517,204.828 213.579,204.765 207.083 C 204.728 203.300,204.846 202.891,205.966 202.891 C 206.328 202.891,206.570 202.733,206.570 202.497 C 206.570 202.186,206.204 202.102,204.850 202.102 L 203.131 202.102 201.173 206.242 C 200.097 208.518,198.989 210.854,198.713 211.432 L 198.210 212.484 197.168 210.250 C 196.044 207.838,195.347 206.315,194.191 203.745 L 193.452 202.102 191.711 202.102 C 190.434 202.102,189.999 202.190,190.079 202.431 M209.374 202.541 C 209.037 202.877,209.202 203.918,209.630 204.158 C 210.619 204.711,211.729 203.592,211.028 202.747 C 210.702 202.355,209.686 202.228,209.374 202.541 M178.712 209.527 C 178.712 209.635,177.886 209.724,176.876 209.724 L 175.041 209.724 175.956 207.162 C 176.460 205.752,176.878 204.540,176.886 204.468 C 176.904 204.281,178.712 209.288,178.712 209.527 M209.264 206.660 C 208.068 206.954,207.767 207.531,208.739 207.669 C 209.317 207.751,209.330 207.827,209.330 211.170 C 209.330 214.461,209.308 214.596,208.739 214.846 C 207.659 215.319,208.123 215.506,210.381 215.506 C 211.695 215.506,212.615 215.398,212.615 215.243 C 212.615 215.099,212.402 214.980,212.142 214.980 C 211.156 214.980,211.038 214.483,211.038 210.329 C 211.038 207.266,210.960 206.317,210.710 206.347 C 210.529 206.368,209.878 206.509,209.264 206.660 M215.506 206.570 C 215.289 206.710,214.853 206.827,214.536 206.829 C 213.679 206.835,213.538 207.323,214.307 207.616 L 214.980 207.871 214.980 211.289 L 214.980 214.707 214.323 214.872 C 212.962 215.214,213.749 215.506,216.032 215.506 C 218.484 215.506,219.015 215.271,217.543 214.838 L 216.689 214.586 216.612 212.236 C 216.503 208.907,217.338 207.270,218.805 207.938 C 219.708 208.350,220.288 208.026,220.188 207.163 C 220.050 205.961,218.622 205.995,217.459 207.228 L 216.557 208.185 216.557 207.246 C 216.557 206.282,216.254 206.087,215.506 206.570 M223.390 206.570 C 223.173 206.710,222.737 206.827,222.420 206.829 C 221.564 206.835,221.422 207.323,222.192 207.616 L 222.865 207.871 222.865 211.289 L 222.865 214.707 222.208 214.872 C 220.846 215.214,221.633 215.506,223.916 215.506 C 226.368 215.506,226.899 215.271,225.427 214.838 L 224.573 214.586 224.496 212.236 C 224.383 208.769,225.168 207.346,226.845 207.979 C 227.822 208.348,228.560 207.654,228.101 206.797 C 227.643 205.941,226.351 206.166,225.331 207.279 L 224.442 208.250 224.442 207.279 C 224.442 206.282,224.146 206.082,223.390 206.570 M231.363 206.968 C 228.355 208.771,228.453 213.625,231.529 215.177 C 234.545 216.700,237.731 214.844,238.018 211.396 C 238.342 207.494,234.619 205.017,231.363 206.968 M240.620 206.683 C 239.425 207.052,239.116 207.542,239.998 207.667 C 240.938 207.800,240.948 214.399,240.008 214.868 C 238.889 215.426,239.073 215.506,241.481 215.506 C 243.847 215.506,244.653 215.199,243.101 214.888 L 242.313 214.731 242.313 211.944 C 242.313 208.670,243.080 207.264,244.512 207.916 C 245.323 208.286,245.992 208.061,245.992 207.420 C 245.992 206.022,244.290 205.913,243.128 207.236 L 242.313 208.165 242.313 207.236 C 242.313 206.216,242.223 206.187,240.620 206.683 M235.076 207.719 C 236.678 209.322,236.625 213.823,234.994 214.696 C 231.920 216.341,229.464 210.470,232.006 207.556 C 232.616 206.857,234.303 206.947,235.076 207.719 " stroke="none" fill="#7c7c7c" fill-rule="evenodd"></path><path id="path4" d="M268.580 158.410 L 267.674 159.396 268.660 158.490 C 269.577 157.647,269.766 157.424,269.565 157.424 C 269.521 157.424,269.078 157.868,268.580 158.410 M289.882 157.769 C 289.882 157.815,290.266 158.199,290.736 158.624 L 291.590 159.396 290.818 158.541 C 290.099 157.745,289.882 157.566,289.882 157.769 M200.905 165.834 C 200.905 170.243,200.941 172.047,200.985 169.842 C 201.029 167.638,201.029 164.031,200.985 161.827 C 200.941 159.622,200.905 161.426,200.905 165.834 M123.583 162.681 C 123.583 163.187,123.637 163.394,123.703 163.141 C 123.769 162.888,123.769 162.474,123.703 162.221 C 123.637 161.968,123.583 162.175,123.583 162.681 M246.632 170.171 C 246.632 173.784,246.669 175.299,246.714 173.537 C 246.759 171.775,246.759 168.818,246.714 166.967 C 246.669 165.115,246.632 166.557,246.632 170.171 M262.641 173.456 C 262.641 174.685,262.686 175.187,262.742 174.573 C 262.797 173.959,262.797 172.953,262.742 172.339 C 262.686 171.725,262.641 172.227,262.641 173.456 M137.390 178.377 C 137.862 178.436,138.572 178.434,138.967 178.374 C 139.362 178.314,138.975 178.267,138.108 178.268 C 137.240 178.270,136.917 178.319,137.390 178.377 M157.950 180.634 C 157.950 180.679,158.334 181.064,158.804 181.488 L 159.658 182.260 158.886 181.406 C 158.167 180.610,157.950 180.431,157.950 180.634 M180.647 183.180 C 180.647 184.553,180.691 185.115,180.745 184.428 C 180.799 183.742,180.799 182.618,180.745 181.932 C 180.691 181.245,180.647 181.807,180.647 183.180 M143.071 184.494 C 143.071 186.301,143.113 187.040,143.164 186.137 C 143.216 185.233,143.216 183.755,143.164 182.852 C 143.113 181.948,143.071 182.687,143.071 184.494 M147.811 187.516 C 147.811 190.407,147.849 191.626,147.896 190.224 C 147.943 188.823,147.944 186.457,147.897 184.968 C 147.850 183.479,147.811 184.625,147.811 187.516 M216.032 182.474 C 216.032 182.519,216.416 182.903,216.886 183.328 L 217.740 184.100 216.968 183.246 C 216.248 182.450,216.032 182.271,216.032 182.474 M196.167 187.779 C 196.168 190.526,196.207 191.613,196.254 190.197 C 196.301 188.780,196.301 186.533,196.253 185.203 C 196.206 183.874,196.167 185.033,196.167 187.779 M185.391 188.830 C 185.391 191.432,185.431 192.461,185.479 191.117 C 185.526 189.772,185.526 187.644,185.478 186.386 C 185.430 185.129,185.391 186.229,185.391 188.830 M241.885 189.882 C 241.886 191.472,241.929 192.088,241.982 191.252 C 242.034 190.415,242.033 189.115,241.981 188.361 C 241.928 187.607,241.885 188.292,241.885 189.882 M226.481 187.834 C 226.808 187.897,227.281 187.894,227.533 187.828 C 227.784 187.763,227.516 187.711,226.938 187.714 C 226.360 187.717,226.154 187.771,226.481 187.834 M202.963 205.519 C 202.963 206.170,203.014 206.436,203.076 206.110 C 203.139 205.785,203.139 205.253,203.076 204.928 C 203.014 204.602,202.963 204.869,202.963 205.519 M204.802 207.884 C 204.802 208.535,204.853 208.801,204.916 208.476 C 204.979 208.150,204.979 207.618,204.916 207.293 C 204.853 206.968,204.802 207.234,204.802 207.884 M192.460 212.484 C 192.461 213.351,192.510 213.674,192.569 213.202 C 192.627 212.729,192.626 212.020,192.566 211.625 C 192.506 211.230,192.458 211.616,192.460 212.484 " stroke="none" fill="#cae8f2" fill-rule="evenodd"></path></g></svg>